<?xml version="1.0" standalone="no"?>
 <!DOCTYPE svg PUBLIC "-//W3C//DTD SVG 1.1//EN" 
 "http://www.w3.org/Graphics/SVG/1.1/DTD/svg11.dtd"> 
<svg xmlns="http://www.w3.org/2000/svg" version="1.1" 
    width="4.46024cm" height="5.45084cm" viewBox="0 0 17560 21460 ">
<title>SVG Picture created as SMDHALL-F_Fab.svg date 2020/04/28 14:23:24 </title>
  <desc>Picture generated by PCBNEW </desc>
<g style="fill:#000000; fill-opacity:1;stroke:#000000; stroke-opacity:1;
stroke-linecap:round; stroke-linejoin:round; "
 transform="translate(0 0) scale(1 1)">
</g>
<g style="fill:#000000; fill-opacity:0.0; 
stroke:#000000; stroke-width:-0.000393701; stroke-opacity:1; 
stroke-linecap:round; stroke-linejoin:round;">
</g>
<g style="fill:#848484; fill-opacity:0.0; 
stroke:#848484; stroke-width:-0.000393701; stroke-opacity:1; 
stroke-linecap:round; stroke-linejoin:round;">
</g>
<g style="fill:#848484; fill-opacity:0.0; 
stroke:#848484; stroke-width:40; stroke-opacity:1; 
stroke-linecap:round; stroke-linejoin:round;">
<path d="M11966 2874
L12106 2631
" />
<path d="M12256 3041
L12396 2798
" />
</g>
<g style="fill:#848484; fill-opacity:1.0; 
stroke:#848484; stroke-width:3.93701; stroke-opacity:1; 
stroke-linecap:round; stroke-linejoin:round;">
<path style="fill:#848484; fill-opacity:1.0; 
stroke:#848484; stroke-width:3.93701; stroke-opacity:1; 
stroke-linecap:round; stroke-linejoin:round;fill-rule:evenodd;"
d="M 11854.1,3030.15
11953.2,2858.6
12277.7,3045.95
12178.6,3217.5
" /> 
<path style="fill:#848484; fill-opacity:1.0; 
stroke:#848484; stroke-width:3.93701; stroke-opacity:1; 
stroke-linecap:round; stroke-linejoin:round;fill-rule:evenodd;"
d="M 12084.9,2630.51
12183.2,2460.23
12507.4,2647.44
12409.1,2817.71
" /> 
</g>
<g style="fill:#848484; fill-opacity:1.0; 
stroke:#848484; stroke-width:40; stroke-opacity:1; 
stroke-linecap:round; stroke-linejoin:round;">
</g>
<g style="fill:#848484; fill-opacity:0.0; 
stroke:#848484; stroke-width:40; stroke-opacity:1; 
stroke-linecap:round; stroke-linejoin:round;">
<path d="M10548 2483
L10548 2203
" />
<path d="M10883 2483
L10883 2203
" />
</g>
<g style="fill:#848484; fill-opacity:1.0; 
stroke:#848484; stroke-width:3.93701; stroke-opacity:1; 
stroke-linecap:round; stroke-linejoin:round;">
<path style="fill:#848484; fill-opacity:1.0; 
stroke:#848484; stroke-width:3.93701; stroke-opacity:1; 
stroke-linecap:round; stroke-linejoin:round;fill-rule:evenodd;"
d="M 10529.4,2674.39
10529.4,2476.3
10904.1,2476.3
10904.1,2674.39
" /> 
<path style="fill:#848484; fill-opacity:1.0; 
stroke:#848484; stroke-width:3.93701; stroke-opacity:1; 
stroke-linecap:round; stroke-linejoin:round;fill-rule:evenodd;"
d="M 10529.4,2212.92
10529.4,2016.3
10903.8,2016.3
10903.8,2212.92
" /> 
</g>
<g style="fill:#848484; fill-opacity:1.0; 
stroke:#848484; stroke-width:40; stroke-opacity:1; 
stroke-linecap:round; stroke-linejoin:round;">
</g>
<g style="fill:#848484; fill-opacity:0.0; 
stroke:#848484; stroke-width:40; stroke-opacity:1; 
stroke-linecap:round; stroke-linejoin:round;">
<path d="M6947 3008
L6820 2758
" />
<path d="M7245 2855
L7118 2606
" />
</g>
<g style="fill:#848484; fill-opacity:1.0; 
stroke:#848484; stroke-width:3.93701; stroke-opacity:1; 
stroke-linecap:round; stroke-linejoin:round;">
<path style="fill:#848484; fill-opacity:1.0; 
stroke:#848484; stroke-width:3.93701; stroke-opacity:1; 
stroke-linecap:round; stroke-linejoin:round;fill-rule:evenodd;"
d="M 7017.3,3186.92
6927.37,3010.42
7261.21,2840.32
7351.15,3016.81
" /> 
<path style="fill:#848484; fill-opacity:1.0; 
stroke:#848484; stroke-width:3.93701; stroke-opacity:1; 
stroke-linecap:round; stroke-linejoin:round;fill-rule:evenodd;"
d="M 6807.79,2775.74
6718.53,2600.56
7052.13,2430.58
7141.39,2605.77
" /> 
</g>
<g style="fill:#848484; fill-opacity:1.0; 
stroke:#848484; stroke-width:39.3701; stroke-opacity:1; 
stroke-linecap:round; stroke-linejoin:round;">
</g>
<g style="fill:#848484; fill-opacity:0.0; 
stroke:#848484; stroke-width:39.3701; stroke-opacity:1; 
stroke-linecap:round; stroke-linejoin:round;">
<path d="M12804 2947
L12544 3398
" />
<path d="M12544 3398
L12951 3633
" />
<path d="M12951 3633
L13125 3733
" />
<path d="M13125 3733
L13532 3968
" />
<path d="M13532 3968
L13602 3846
" />
<path d="M13602 3846
L13722 3638
" />
<path d="M13722 3638
L13792 3517
" />
<path d="M13792 3517
L13705 3467
" />
<path d="M13705 3467
L13540 3372
" />
<path d="M13540 3372
L13055 3092
" />
<path d="M13705 3467
L13825 3259
" />
<path d="M13825 3259
L13660 3164
" />
<path d="M13660 3164
L13540 3372
" />
<path d="M12804 2947
L12891 2997
" />
<path d="M12891 2997
L13055 3092
" />
<path d="M13055 3092
L13175 2884
" />
<path d="M13175 2884
L13011 2789
" />
<path d="M13011 2789
L12891 2997
" />
<path d="M12951 3633
L12831 3840
" />
<path d="M12831 3840
L13005 3940
" />
<path d="M13005 3940
L13125 3733
" />
<path d="M13722.1 3638.91 A120 120 0.0 0 0 13602.1 3846.76 " />
<path d="M9013 2222
L9013 2742
" />
<path d="M9013 2742
L9483 2742
" />
<path d="M9483 2742
L9683 2742
" />
<path d="M9683 2742
L10153 2742
" />
<path d="M10153 2742
L10153 2602
" />
<path d="M10153 2602
L10153 2362
" />
<path d="M10153 2362
L10153 2222
" />
<path d="M10153 2222
L10053 2222
" />
<path d="M10053 2222
L9863 2222
" />
<path d="M9863 2222
L9303 2222
" />
<path d="M10053 2222
L10053 1982
" />
<path d="M10053 1982
L9863 1982
" />
<path d="M9863 1982
L9863 2222
" />
<path d="M9013 2222
L9113 2222
" />
<path d="M9113 2222
L9303 2222
" />
<path d="M9303 2222
L9303 1982
" />
<path d="M9303 1982
L9113 1982
" />
<path d="M9113 1982
L9113 2222
" />
<path d="M9483 2742
L9483 2982
" />
<path d="M9483 2982
L9683 2982
" />
<path d="M9683 2982
L9683 2742
" />
<path d="M10153.4 2362.84 A120 120 0.0 0 0 10153.4 2602.84 " />
<path d="M5369 3502
L5629 3953
" />
<path d="M5629 3953
L6036 3718
" />
<path d="M6036 3718
L6210 3618
" />
<path d="M6210 3618
L6617 3383
" />
<path d="M6617 3383
L6547 3261
" />
<path d="M6547 3261
L6427 3053
" />
<path d="M6427 3053
L6357 2932
" />
<path d="M6357 2932
L6270 2982
" />
<path d="M6270 2982
L6105 3077
" />
<path d="M6105 3077
L5620 3357
" />
<path d="M6270 2982
L6150 2774
" />
<path d="M6150 2774
L5985 2869
" />
<path d="M5985 2869
L6105 3077
" />
<path d="M5369 3502
L5456 3452
" />
<path d="M5456 3452
L5620 3357
" />
<path d="M5620 3357
L5500 3149
" />
<path d="M5500 3149
L5336 3244
" />
<path d="M5336 3244
L5456 3452
" />
<path d="M6036 3718
L6156 3925
" />
<path d="M6156 3925
L6330 3825
" />
<path d="M6330 3825
L6210 3618
" />
<path d="M6427.06 3053.91 A120 120 0.0 0 0 6547.06 3261.76 " />
<g >
</g>
<g >
</g>
<g >
</g>
<g >
</g>
<g >
</g>
<g >
</g>
<g >
</g>
<g >
</g>
<g >
</g>
<g >
</g>
</g>
<g style="fill:#000000; fill-opacity:0.0; 
stroke:#000000; stroke-width:39.3701; stroke-opacity:1; 
stroke-linecap:round; stroke-linejoin:round;">
</g>
<g style="fill:#C2C200; fill-opacity:0.0; 
stroke:#C2C200; stroke-width:39.3701; stroke-opacity:1; 
stroke-linecap:round; stroke-linejoin:round;">
</g>
<g style="fill:#C2C200; fill-opacity:0.0; 
stroke:#C2C200; stroke-width:78.7402; stroke-opacity:1; 
stroke-linecap:round; stroke-linejoin:round;">
<path d="M14384 7183
L17527 5547
" />
<path d="M14384.4 7183.74 A5407.87 5407.87 0.0 0 0 4782.43 7183.74 " />
<circle cx="14840.5" cy="4783.36" r="787.402" /> 
<circle cx="4325.86" cy="4783.86" r="787.402" /> 
<path d="M1639 5547
L4782 7183
" />
<path d="M17527.2 5547.22 A8951.18 8951.18 0.0 0 0 1639.69 5547.22 " />
<g >
</g>
<g >
</g>
<g >
</g>
<g >
</g>
<g >
</g>
<g >
</g>
<g >
</g>
<g >
</g>
<g >
</g>
<g >
</g>
</g> 
</svg>
