<?xml version="1.0" standalone="no"?>
 <!DOCTYPE svg PUBLIC "-//W3C//DTD SVG 1.1//EN" 
 "http://www.w3.org/Graphics/SVG/1.1/DTD/svg11.dtd"> 
<svg xmlns="http://www.w3.org/2000/svg" version="1.1" 
    width="4.56692cm" height="2.29108cm" viewBox="0 0 17980 9020 ">
<title>SVG Picture created as Encoder-brd.svg date 2020/07/01 10:55:44 </title>
  <desc>Picture generated by PCBNEW </desc>
<g style="fill:#000000; fill-opacity:1;stroke:#000000; stroke-opacity:1;
stroke-linecap:round; stroke-linejoin:round; "
 transform="translate(0 0) scale(1 1)">
</g>
<g style="fill:#000000; fill-opacity:0.0; 
stroke:#000000; stroke-width:-0.000393701; stroke-opacity:1; 
stroke-linecap:round; stroke-linejoin:round;">
</g>
<g style="fill:#848484; fill-opacity:0.0; 
stroke:#848484; stroke-width:-0.000393701; stroke-opacity:1; 
stroke-linecap:round; stroke-linejoin:round;">
</g>
<g style="fill:#848484; fill-opacity:0.0; 
stroke:#848484; stroke-width:50; stroke-opacity:1; 
stroke-linecap:round; stroke-linejoin:round;">
<path d="M3885 4500
L3696 4827
" />
<path d="M3284 4153
L3096 4480
" />
<path d="M3096 4480
L3696 4827
" />
<path d="M3284 4153
L3885 4500
" />
<path d="M8079 1544
L8079 2237
" />
<path d="M7701 1544
L7701 2237
" />
<path d="M8079 1544
L7701 1544
" />
<path d="M8079 2237
L7701 2237
" />
<path d="M14284 4727
L14096 4400
" />
<path d="M14885 4380
L14696 4053
" />
<path d="M14696 4053
L14096 4400
" />
<path d="M14885 4380
L14284 4727
" />
</g>
<g style="fill:#848484; fill-opacity:1.0; 
stroke:#848484; stroke-width:3.93701; stroke-opacity:1; 
stroke-linecap:round; stroke-linejoin:round;">
<path style="fill:#848484; fill-opacity:1.0; 
stroke:#848484; stroke-width:3.93701; stroke-opacity:1; 
stroke-linecap:round; stroke-linejoin:round;fill-rule:evenodd;"
d="M 2754.58,5872.28
2844.91,5715.81
3044.09,5830.81
2953.76,5987.27
" /> 
<path style="fill:#848484; fill-opacity:1.0; 
stroke:#848484; stroke-width:3.93701; stroke-opacity:1; 
stroke-linecap:round; stroke-linejoin:round;fill-rule:evenodd;"
d="M 3125,5230.68
3214.91,5074.95
3414.1,5189.95
3324.19,5345.68
" /> 
<path style="fill:#848484; fill-opacity:1.0; 
stroke:#848484; stroke-width:3.93701; stroke-opacity:1; 
stroke-linecap:round; stroke-linejoin:round;fill-rule:evenodd;"
d="M 2255.73,5156.31
2345.75,5000.39
2544.6,5115.19
2454.58,5271.11
" /> 
</g>
<g style="fill:#848484; fill-opacity:1.0; 
stroke:#848484; stroke-width:60; stroke-opacity:1; 
stroke-linecap:round; stroke-linejoin:round;">
</g>
<g style="fill:#848484; fill-opacity:0.0; 
stroke:#848484; stroke-width:60; stroke-opacity:1; 
stroke-linecap:round; stroke-linejoin:round;">
<path d="M2237 5688
L2797 4718
" />
<path d="M2687 5948
L2237 5688
" />
<path d="M3247 4978
L2687 5948
" />
<path d="M2797 4718
L3247 4978
" />
<path d="M9549 1513
L9549 2033
" />
<path d="M9549 2033
L8429 2033
" />
<path d="M8429 2033
L8429 1513
" />
<path d="M8429 1513
L9549 1513
" />
</g>
<g style="fill:#848484; fill-opacity:1.0; 
stroke:#848484; stroke-width:3.93701; stroke-opacity:1; 
stroke-linecap:round; stroke-linejoin:round;">
<path style="fill:#848484; fill-opacity:1.0; 
stroke:#848484; stroke-width:3.93701; stroke-opacity:1; 
stroke-linecap:round; stroke-linejoin:round;fill-rule:evenodd;"
d="M 8899.21,1263.85
9079.25,1263.85
9079.25,1493.46
8899.21,1493.46
" /> 
<path style="fill:#848484; fill-opacity:1.0; 
stroke:#848484; stroke-width:3.93701; stroke-opacity:1; 
stroke-linecap:round; stroke-linejoin:round;fill-rule:evenodd;"
d="M 9269.43,2053.85
9449.25,2053.85
9449.25,2283.85
9269.43,2283.85
" /> 
<path style="fill:#848484; fill-opacity:1.0; 
stroke:#848484; stroke-width:3.93701; stroke-opacity:1; 
stroke-linecap:round; stroke-linejoin:round;fill-rule:evenodd;"
d="M 8528.58,2053.85
8709.25,2053.85
8709.25,2283.84
8528.58,2283.84
" /> 
<path style="fill:#848484; fill-opacity:1.0; 
stroke:#848484; stroke-width:3.93701; stroke-opacity:1; 
stroke-linecap:round; stroke-linejoin:round;fill-rule:evenodd;"
d="M 14764.6,5072.12
14854.9,5228.59
14655.7,5343.58
14565.4,5187.12
" /> 
<path style="fill:#848484; fill-opacity:1.0; 
stroke:#848484; stroke-width:3.93701; stroke-opacity:1; 
stroke-linecap:round; stroke-linejoin:round;fill-rule:evenodd;"
d="M 15135,5713.72
15224.9,5869.45
15025.7,5984.45
14935.8,5828.72
" /> 
<path style="fill:#848484; fill-opacity:1.0; 
stroke:#848484; stroke-width:3.93701; stroke-opacity:1; 
stroke-linecap:round; stroke-linejoin:round;fill-rule:evenodd;"
d="M 15634,4998.09
15724.1,5154.02
15525.2,5268.82
15435.2,5112.9
" /> 
</g>
<g style="fill:#848484; fill-opacity:1.0; 
stroke:#848484; stroke-width:60; stroke-opacity:1; 
stroke-linecap:round; stroke-linejoin:round;">
</g>
<g style="fill:#848484; fill-opacity:0.0; 
stroke:#848484; stroke-width:60; stroke-opacity:1; 
stroke-linecap:round; stroke-linejoin:round;">
<path d="M15182 4716
L15742 5686
" />
<path d="M14732 4976
L15182 4716
" />
<path d="M15292 5946
L14732 4976
" />
<path d="M15742 5686
L15292 5946
" />
<g >
</g>
<g >
</g>
<g >
</g>
<g >
</g>
<g >
</g>
<g >
</g>
<g >
</g>
<g >
</g>
<g >
</g>
<g >
</g>
<g >
</g>
</g>
<g style="fill:#000000; fill-opacity:0.0; 
stroke:#000000; stroke-width:60; stroke-opacity:1; 
stroke-linecap:round; stroke-linejoin:round;">
</g>
<g style="fill:#C2C200; fill-opacity:0.0; 
stroke:#C2C200; stroke-width:60; stroke-opacity:1; 
stroke-linecap:round; stroke-linejoin:round;">
</g>
<g style="fill:#C2C200; fill-opacity:0.0; 
stroke:#C2C200; stroke-width:78.7402; stroke-opacity:1; 
stroke-linecap:round; stroke-linejoin:round;">
<circle cx="1982.68" cy="7218.9" r="787.402" /> 
<path d="M17941.7 8990.55 A8951.18 8951.18 0.0 0 0 16934.3 4864.94 " />
<path d="M13791.5 6501.46 A5407.87 5407.87 0.0 0 0 4189.56 6501.46 " />
<circle cx="15998.4" cy="7218.9" r="787.402" /> 
<path d="M16934.3 4864.94 A8951.18 8951.18 0.0 0 0 1046.81 4864.94 " />
<path d="M1046.81 4864.94 A8951.18 8951.18 0.0 0 0 39.3705 8990.55 " />
<path d="M14398 8990
L17941 8990
" />
<path d="M39 8990
L3582 8990
" />
<path d="M4189.56 6501.46 A5407.87 5407.87 0.0 0 0 3582.68 8990.55 " />
<path d="M14398.4 8990.55 A5407.87 5407.87 0.0 0 0 13791.5 6501.46 " />
<g >
</g>
<g >
</g>
<g >
</g>
<g >
</g>
<g >
</g>
<g >
</g>
<g >
</g>
<g >
</g>
<g >
</g>
<g >
</g>
<g >
</g>
</g> 
</svg>
