G04 #@! TF.GenerationSoftware,KiCad,Pcbnew,5.1.5*
G04 #@! TF.CreationDate,2020-06-30T15:32:26-05:00*
G04 #@! TF.ProjectId,Encoder,456e636f-6465-4722-9e6b-696361645f70,rev?*
G04 #@! TF.SameCoordinates,Original*
G04 #@! TF.FileFunction,Copper,L1,Top*
G04 #@! TF.FilePolarity,Positive*
%FSLAX46Y46*%
G04 Gerber Fmt 4.6, Leading zero omitted, Abs format (unit mm)*
G04 Created by KiCad (PCBNEW 5.1.5) date 2020-06-30 15:32:26*
%MOMM*%
%LPD*%
G04 APERTURE LIST*
%ADD10C,0.100000*%
%ADD11R,0.970000X0.920000*%
%ADD12R,1.000000X1.400000*%
%ADD13C,0.800000*%
%ADD14C,0.500000*%
%ADD15C,0.400000*%
%ADD16C,0.250000*%
%ADD17C,0.254000*%
G04 APERTURE END LIST*
G04 #@! TA.AperFunction,SMDPad,CuDef*
D10*
G36*
X139161702Y-70542478D02*
G01*
X138676702Y-71382522D01*
X137879958Y-70922522D01*
X138364958Y-70082478D01*
X139161702Y-70542478D01*
G37*
G04 #@! TD.AperFunction*
G04 #@! TA.AperFunction,SMDPad,CuDef*
G36*
X140504042Y-71317478D02*
G01*
X140019042Y-72157522D01*
X139222298Y-71697522D01*
X139707298Y-70857478D01*
X140504042Y-71317478D01*
G37*
G04 #@! TD.AperFunction*
D11*
X150368000Y-65291000D03*
X150368000Y-63741000D03*
G04 #@! TA.AperFunction,SMDPad,CuDef*
D10*
G36*
X167647298Y-71128522D02*
G01*
X167162298Y-70288478D01*
X167959042Y-69828478D01*
X168444042Y-70668522D01*
X167647298Y-71128522D01*
G37*
G04 #@! TD.AperFunction*
G04 #@! TA.AperFunction,SMDPad,CuDef*
G36*
X166304958Y-71903522D02*
G01*
X165819958Y-71063478D01*
X166616702Y-70603478D01*
X167101702Y-71443522D01*
X166304958Y-71903522D01*
G37*
G04 #@! TD.AperFunction*
G04 #@! TA.AperFunction,SMDPad,CuDef*
G36*
X138129353Y-75414737D02*
G01*
X136916917Y-74714737D01*
X137416917Y-73848711D01*
X138629353Y-74548711D01*
X138129353Y-75414737D01*
G37*
G04 #@! TD.AperFunction*
G04 #@! TA.AperFunction,SMDPad,CuDef*
G36*
X139079353Y-73769289D02*
G01*
X137866917Y-73069289D01*
X138366917Y-72203263D01*
X139579353Y-72903263D01*
X139079353Y-73769289D01*
G37*
G04 #@! TD.AperFunction*
G04 #@! TA.AperFunction,SMDPad,CuDef*
G36*
X136697001Y-73490803D02*
G01*
X135484565Y-72790803D01*
X135984565Y-71924777D01*
X137197001Y-72624777D01*
X136697001Y-73490803D01*
G37*
G04 #@! TD.AperFunction*
D12*
X153162000Y-63119580D03*
X154112000Y-65322000D03*
X152212000Y-65322000D03*
G04 #@! TA.AperFunction,SMDPad,CuDef*
D10*
G36*
X166744647Y-72903263D02*
G01*
X167957083Y-72203263D01*
X168457083Y-73069289D01*
X167244647Y-73769289D01*
X166744647Y-72903263D01*
G37*
G04 #@! TD.AperFunction*
G04 #@! TA.AperFunction,SMDPad,CuDef*
G36*
X167694647Y-74548711D02*
G01*
X168907083Y-73848711D01*
X169407083Y-74714737D01*
X168194647Y-75414737D01*
X167694647Y-74548711D01*
G37*
G04 #@! TD.AperFunction*
G04 #@! TA.AperFunction,SMDPad,CuDef*
G36*
X169126999Y-72624777D02*
G01*
X170339435Y-71924777D01*
X170839435Y-72790803D01*
X169626999Y-73490803D01*
X169126999Y-72624777D01*
G37*
G04 #@! TD.AperFunction*
D13*
X164592000Y-72644000D03*
X162327335Y-65002665D03*
X148349000Y-63741000D03*
X140948665Y-68304665D03*
X169164000Y-71628000D03*
X150114000Y-67818000D03*
X140081000Y-73533000D03*
X155194000Y-65278000D03*
X165100000Y-74422000D03*
D14*
X166460830Y-71253500D02*
X165982500Y-71253500D01*
X165982500Y-71253500D02*
X164592000Y-72644000D01*
X150368000Y-63031000D02*
X150661000Y-62738000D01*
X150368000Y-63741000D02*
X150368000Y-63031000D01*
X150661000Y-62738000D02*
X151892000Y-62738000D01*
X152273580Y-63119580D02*
X153162000Y-63119580D01*
X151892000Y-62738000D02*
X152273580Y-63119580D01*
X137547500Y-70732500D02*
X138520830Y-70732500D01*
X136340783Y-72707790D02*
X136340783Y-71939217D01*
X136340783Y-71939217D02*
X137547500Y-70732500D01*
X169418000Y-71882000D02*
X169418000Y-72142573D01*
X168910000Y-71374000D02*
X169164000Y-71628000D01*
X167803170Y-70478500D02*
X168698670Y-71374000D01*
X169418000Y-72142573D02*
X169983217Y-72707790D01*
X168698670Y-71374000D02*
X168910000Y-71374000D01*
X145512330Y-63741000D02*
X148349000Y-63741000D01*
X138520830Y-70732500D02*
X140948665Y-68304665D01*
X154547580Y-62484000D02*
X155194000Y-62484000D01*
X153162000Y-63119580D02*
X153912000Y-63119580D01*
X153912000Y-63119580D02*
X154547580Y-62484000D01*
X159808670Y-62484000D02*
X162327335Y-65002665D01*
X155194000Y-62484000D02*
X159808670Y-62484000D01*
X162327335Y-65002665D02*
X167803170Y-70478500D01*
X148349000Y-63741000D02*
X150368000Y-63741000D01*
X140948665Y-68304665D02*
X145512330Y-63741000D01*
X169164000Y-71628000D02*
X169418000Y-71882000D01*
X152181000Y-65291000D02*
X152212000Y-65322000D01*
X150368000Y-65291000D02*
X152181000Y-65291000D01*
X140199913Y-71844243D02*
X139863170Y-71507500D01*
X137773135Y-74631724D02*
X138676554Y-74631724D01*
X166460830Y-71846241D02*
X167600865Y-72986276D01*
X166460830Y-71253500D02*
X166460830Y-71846241D01*
X146079670Y-65291000D02*
X150368000Y-65291000D01*
X139863170Y-71507500D02*
X146079670Y-65291000D01*
X162263330Y-67056000D02*
X166460830Y-71253500D01*
X152996000Y-67056000D02*
X154940000Y-67056000D01*
X152212000Y-65322000D02*
X152212000Y-66272000D01*
X152212000Y-66272000D02*
X152996000Y-67056000D01*
X154940000Y-67056000D02*
X162263330Y-67056000D01*
X140806001Y-72450331D02*
X140806001Y-72734001D01*
X139863170Y-71507500D02*
X140806001Y-72450331D01*
X140806001Y-72734001D02*
X141224000Y-73152000D01*
X141224000Y-73152000D02*
X141224000Y-74168000D01*
X140760276Y-74631724D02*
X137773135Y-74631724D01*
X141224000Y-74168000D02*
X140760276Y-74631724D01*
D15*
X139235570Y-73498711D02*
X140046711Y-73498711D01*
X138723135Y-72986276D02*
X139235570Y-73498711D01*
X140046711Y-73498711D02*
X140081000Y-73533000D01*
X140081000Y-73533000D02*
X140208000Y-73660000D01*
D16*
X154112000Y-65322000D02*
X155150000Y-65322000D01*
X155150000Y-65322000D02*
X155194000Y-65278000D01*
D14*
X168550865Y-74631724D02*
X165309724Y-74631724D01*
X165309724Y-74631724D02*
X165100000Y-74422000D01*
D16*
X165100000Y-74422000D02*
X165100000Y-74422000D01*
D17*
G36*
X154943748Y-60621914D02*
G01*
X156772377Y-60847910D01*
X158575700Y-61226130D01*
X160341058Y-61753926D01*
X162056056Y-62427592D01*
X163708660Y-63242396D01*
X165287290Y-64192634D01*
X166780869Y-65271633D01*
X168178916Y-66471823D01*
X169471645Y-67784802D01*
X170649957Y-69201332D01*
X171705616Y-70711508D01*
X172638434Y-72317168D01*
X172680140Y-72396944D01*
X173466258Y-74079306D01*
X174103860Y-75808038D01*
X174594570Y-77584064D01*
X174934940Y-79394901D01*
X175123033Y-81232199D01*
X175140561Y-81815000D01*
X167611401Y-81815000D01*
X167467493Y-80374421D01*
X167461589Y-80336303D01*
X167455850Y-80298374D01*
X167455325Y-80295862D01*
X167148859Y-78842162D01*
X167138898Y-78805001D01*
X167129071Y-78767817D01*
X167128278Y-78765377D01*
X166806107Y-77779963D01*
X168220266Y-77779963D01*
X168220266Y-78320037D01*
X168325629Y-78849734D01*
X168532307Y-79348698D01*
X168832356Y-79797753D01*
X169214247Y-80179644D01*
X169663302Y-80479693D01*
X170162266Y-80686371D01*
X170691963Y-80791734D01*
X171232037Y-80791734D01*
X171761734Y-80686371D01*
X172260698Y-80479693D01*
X172709753Y-80179644D01*
X173091644Y-79797753D01*
X173391693Y-79348698D01*
X173598371Y-78849734D01*
X173703734Y-78320037D01*
X173703734Y-77779963D01*
X173598371Y-77250266D01*
X173391693Y-76751302D01*
X173091644Y-76302247D01*
X172709753Y-75920356D01*
X172260698Y-75620307D01*
X171761734Y-75413629D01*
X171232037Y-75308266D01*
X170691963Y-75308266D01*
X170162266Y-75413629D01*
X169663302Y-75620307D01*
X169214247Y-75920356D01*
X168832356Y-76302247D01*
X168532307Y-76751302D01*
X168325629Y-77250266D01*
X168220266Y-77779963D01*
X166806107Y-77779963D01*
X166666606Y-77353278D01*
X166652631Y-77317258D01*
X166638904Y-77281505D01*
X166637852Y-77279164D01*
X166026374Y-75925185D01*
X166016047Y-75905267D01*
X166006684Y-75884909D01*
X166005483Y-75882641D01*
X165871475Y-75630609D01*
X165859899Y-75611420D01*
X165849232Y-75591686D01*
X165847887Y-75589501D01*
X165802947Y-75516724D01*
X167516747Y-75516724D01*
X167642060Y-75733773D01*
X167714919Y-75835447D01*
X167806213Y-75920953D01*
X167912435Y-75987006D01*
X168029502Y-76031067D01*
X168152915Y-76051443D01*
X168277932Y-76047350D01*
X168399748Y-76018947D01*
X168513683Y-75967324D01*
X169726119Y-75267324D01*
X169827793Y-75194465D01*
X169913299Y-75103171D01*
X169979352Y-74996949D01*
X170023413Y-74879882D01*
X170043789Y-74756469D01*
X170039696Y-74631452D01*
X170011293Y-74509636D01*
X169959670Y-74395701D01*
X169791529Y-74104473D01*
X169832101Y-74095013D01*
X169946035Y-74043389D01*
X170303250Y-73833604D01*
X170361357Y-73616747D01*
X169936732Y-72881275D01*
X169919411Y-72891275D01*
X169840314Y-72754275D01*
X170156702Y-72754275D01*
X170581327Y-73489747D01*
X170798184Y-73547854D01*
X171158471Y-73343389D01*
X171260145Y-73270531D01*
X171345652Y-73179236D01*
X171411704Y-73073014D01*
X171455765Y-72955948D01*
X171476140Y-72832535D01*
X171472048Y-72707518D01*
X171443645Y-72585701D01*
X171392021Y-72471767D01*
X171282236Y-72287757D01*
X171065379Y-72229650D01*
X170156702Y-72754275D01*
X169840314Y-72754275D01*
X169792411Y-72671305D01*
X169809732Y-72661305D01*
X169385107Y-71925833D01*
X169168250Y-71867726D01*
X168807963Y-72072191D01*
X168706289Y-72145049D01*
X168677811Y-72175455D01*
X168509670Y-71884227D01*
X168448478Y-71798833D01*
X169605077Y-71798833D01*
X170029702Y-72534305D01*
X170938379Y-72009680D01*
X170996486Y-71792823D01*
X170892021Y-71605741D01*
X170819163Y-71504067D01*
X170727868Y-71418560D01*
X170621646Y-71352508D01*
X170504580Y-71308447D01*
X170381167Y-71288072D01*
X170256150Y-71292164D01*
X170134333Y-71320567D01*
X170020399Y-71372191D01*
X169663184Y-71581976D01*
X169605077Y-71798833D01*
X168448478Y-71798833D01*
X168436811Y-71782553D01*
X168345517Y-71697047D01*
X168239295Y-71630994D01*
X168122228Y-71586933D01*
X168117106Y-71586087D01*
X168173810Y-71374467D01*
X167756685Y-70651985D01*
X167739364Y-70661985D01*
X167660267Y-70524985D01*
X167976655Y-70524985D01*
X168393780Y-71247467D01*
X168610637Y-71305573D01*
X168763078Y-71221109D01*
X168864752Y-71148250D01*
X168950259Y-71056956D01*
X169016311Y-70950734D01*
X169060372Y-70833667D01*
X169080747Y-70710255D01*
X169076655Y-70585237D01*
X169048252Y-70463421D01*
X168996628Y-70349486D01*
X168894343Y-70178467D01*
X168677486Y-70120360D01*
X167976655Y-70524985D01*
X167660267Y-70524985D01*
X167612364Y-70442015D01*
X167629685Y-70432015D01*
X167212560Y-69709533D01*
X166995703Y-69651427D01*
X166843262Y-69735891D01*
X166741588Y-69808750D01*
X166656081Y-69900044D01*
X166613676Y-69968237D01*
X166533417Y-69970865D01*
X166449370Y-69990462D01*
X166041441Y-69582533D01*
X167432530Y-69582533D01*
X167849655Y-70305015D01*
X168550486Y-69900390D01*
X168608593Y-69683533D01*
X168511628Y-69509442D01*
X168438770Y-69407767D01*
X168347475Y-69322261D01*
X168241253Y-69256208D01*
X168124187Y-69212148D01*
X168000774Y-69191772D01*
X167875757Y-69195864D01*
X167753940Y-69224268D01*
X167640006Y-69275891D01*
X167490637Y-69365677D01*
X167432530Y-69582533D01*
X166041441Y-69582533D01*
X162919864Y-66460956D01*
X162892147Y-66427183D01*
X162757389Y-66316589D01*
X162603643Y-66234411D01*
X162436820Y-66183805D01*
X162306807Y-66171000D01*
X162306799Y-66171000D01*
X162263330Y-66166719D01*
X162219861Y-66171000D01*
X155720481Y-66171000D01*
X155853774Y-66081937D01*
X155997937Y-65937774D01*
X156111205Y-65768256D01*
X156189226Y-65579898D01*
X156229000Y-65379939D01*
X156229000Y-65176061D01*
X156189226Y-64976102D01*
X156111205Y-64787744D01*
X155997937Y-64618226D01*
X155853774Y-64474063D01*
X155684256Y-64360795D01*
X155495898Y-64282774D01*
X155295939Y-64243000D01*
X155122426Y-64243000D01*
X155063185Y-64170815D01*
X154966494Y-64091463D01*
X154856180Y-64032498D01*
X154736482Y-63996188D01*
X154612000Y-63983928D01*
X154275719Y-63983928D01*
X154287812Y-63944062D01*
X154300072Y-63819580D01*
X154297000Y-63405330D01*
X154138250Y-63246580D01*
X153289000Y-63246580D01*
X153289000Y-63266580D01*
X153035000Y-63266580D01*
X153035000Y-63246580D01*
X152185750Y-63246580D01*
X152027000Y-63405330D01*
X152023928Y-63819580D01*
X152036188Y-63944062D01*
X152048281Y-63983928D01*
X151712000Y-63983928D01*
X151587518Y-63996188D01*
X151487713Y-64026463D01*
X151329250Y-63868000D01*
X150495000Y-63868000D01*
X150495000Y-63888000D01*
X150241000Y-63888000D01*
X150241000Y-63868000D01*
X149406750Y-63868000D01*
X149248000Y-64026750D01*
X149244928Y-64201000D01*
X149257188Y-64325482D01*
X149281613Y-64406000D01*
X146123139Y-64406000D01*
X146079670Y-64401719D01*
X146036201Y-64406000D01*
X146036193Y-64406000D01*
X145906180Y-64418805D01*
X145739356Y-64469411D01*
X145585611Y-64551589D01*
X145484623Y-64634468D01*
X145484621Y-64634470D01*
X145450853Y-64662183D01*
X145423140Y-64695951D01*
X139874630Y-70244462D01*
X139790583Y-70224865D01*
X139710324Y-70222237D01*
X139667919Y-70154044D01*
X139582412Y-70062750D01*
X139480738Y-69989891D01*
X139328297Y-69905427D01*
X139111440Y-69963533D01*
X138694315Y-70686015D01*
X138711636Y-70696015D01*
X138584636Y-70915985D01*
X138567315Y-70905985D01*
X138166506Y-71600206D01*
X138084705Y-71630994D01*
X137978483Y-71697047D01*
X137887189Y-71782553D01*
X137814330Y-71884227D01*
X137646189Y-72175455D01*
X137617711Y-72145049D01*
X137516037Y-72072191D01*
X137155750Y-71867726D01*
X136938893Y-71925833D01*
X136514268Y-72661305D01*
X136531589Y-72671305D01*
X136404589Y-72891275D01*
X136387268Y-72881275D01*
X135962643Y-73616747D01*
X136020750Y-73833604D01*
X136377965Y-74043389D01*
X136491899Y-74095013D01*
X136532471Y-74104473D01*
X136364330Y-74395701D01*
X136312707Y-74509636D01*
X136284304Y-74631452D01*
X136280211Y-74756469D01*
X136300587Y-74879882D01*
X136344648Y-74996949D01*
X136410701Y-75103171D01*
X136496207Y-75194465D01*
X136597881Y-75267324D01*
X137810317Y-75967324D01*
X137924252Y-76018947D01*
X138046068Y-76047350D01*
X138171085Y-76051443D01*
X138294498Y-76031067D01*
X138411565Y-75987006D01*
X138517787Y-75920953D01*
X138609081Y-75835447D01*
X138681940Y-75733773D01*
X138807253Y-75516724D01*
X140533284Y-75516724D01*
X140334216Y-75854611D01*
X140321818Y-75878524D01*
X140308578Y-75902018D01*
X140307446Y-75904321D01*
X140032732Y-76465024D01*
X140022201Y-76489830D01*
X140010809Y-76514259D01*
X140009857Y-76516642D01*
X139460541Y-77897011D01*
X139448259Y-77933506D01*
X139435874Y-77969884D01*
X139435184Y-77972355D01*
X139038162Y-79403976D01*
X139029920Y-79441462D01*
X139021510Y-79479085D01*
X139021091Y-79481617D01*
X138781003Y-80947742D01*
X138776853Y-80985940D01*
X138772560Y-81024211D01*
X138772419Y-81026754D01*
X138772417Y-81026773D01*
X138772417Y-81026791D01*
X138729729Y-81815000D01*
X131192451Y-81815000D01*
X131238803Y-80709059D01*
X131469737Y-78881027D01*
X131703776Y-77779963D01*
X132620266Y-77779963D01*
X132620266Y-78320037D01*
X132725629Y-78849734D01*
X132932307Y-79348698D01*
X133232356Y-79797753D01*
X133614247Y-80179644D01*
X134063302Y-80479693D01*
X134562266Y-80686371D01*
X135091963Y-80791734D01*
X135632037Y-80791734D01*
X136161734Y-80686371D01*
X136660698Y-80479693D01*
X137109753Y-80179644D01*
X137491644Y-79797753D01*
X137791693Y-79348698D01*
X137998371Y-78849734D01*
X138103734Y-78320037D01*
X138103734Y-77779963D01*
X137998371Y-77250266D01*
X137791693Y-76751302D01*
X137491644Y-76302247D01*
X137109753Y-75920356D01*
X136660698Y-75620307D01*
X136161734Y-75413629D01*
X135632037Y-75308266D01*
X135091963Y-75308266D01*
X134562266Y-75413629D01*
X134063302Y-75620307D01*
X133614247Y-75920356D01*
X133232356Y-76302247D01*
X132932307Y-76751302D01*
X132725629Y-77250266D01*
X132620266Y-77779963D01*
X131703776Y-77779963D01*
X131852828Y-77078731D01*
X132385386Y-75314815D01*
X133065278Y-73597604D01*
X133433853Y-72832535D01*
X134847860Y-72832535D01*
X134868235Y-72955948D01*
X134912296Y-73073014D01*
X134978348Y-73179236D01*
X135063855Y-73270531D01*
X135165529Y-73343389D01*
X135525816Y-73547854D01*
X135742673Y-73489747D01*
X136167298Y-72754275D01*
X135258621Y-72229650D01*
X135041764Y-72287757D01*
X134931979Y-72471767D01*
X134880355Y-72585701D01*
X134851952Y-72707518D01*
X134847860Y-72832535D01*
X133433853Y-72832535D01*
X133635586Y-72413790D01*
X133991869Y-71792823D01*
X135327514Y-71792823D01*
X135385621Y-72009680D01*
X136294298Y-72534305D01*
X136718923Y-71798833D01*
X136660816Y-71581976D01*
X136303601Y-71372191D01*
X136189667Y-71320567D01*
X136067850Y-71292164D01*
X135942833Y-71288072D01*
X135819420Y-71308447D01*
X135702354Y-71352508D01*
X135596132Y-71418560D01*
X135504837Y-71504067D01*
X135431979Y-71605741D01*
X135327514Y-71792823D01*
X133991869Y-71792823D01*
X134467265Y-70964255D01*
X137243253Y-70964255D01*
X137263628Y-71087667D01*
X137307689Y-71204734D01*
X137373741Y-71310956D01*
X137459248Y-71402250D01*
X137560922Y-71475109D01*
X137713363Y-71559573D01*
X137930220Y-71501467D01*
X138347345Y-70778985D01*
X137646514Y-70374360D01*
X137429657Y-70432467D01*
X137327372Y-70603486D01*
X137275748Y-70717421D01*
X137247345Y-70839237D01*
X137243253Y-70964255D01*
X134467265Y-70964255D01*
X134554729Y-70811814D01*
X135158874Y-69937533D01*
X137715407Y-69937533D01*
X137773514Y-70154390D01*
X138474345Y-70559015D01*
X138891470Y-69836533D01*
X138833363Y-69619677D01*
X138683994Y-69529891D01*
X138570060Y-69478268D01*
X138448243Y-69449864D01*
X138323226Y-69445772D01*
X138199813Y-69466148D01*
X138082747Y-69510208D01*
X137976525Y-69576261D01*
X137885230Y-69661767D01*
X137812372Y-69763442D01*
X137715407Y-69937533D01*
X135158874Y-69937533D01*
X135602206Y-69295973D01*
X136772861Y-67873090D01*
X138058476Y-66553152D01*
X139450022Y-65345430D01*
X140937759Y-64258376D01*
X142511242Y-63299625D01*
X142548508Y-63281000D01*
X149244928Y-63281000D01*
X149248000Y-63455250D01*
X149406750Y-63614000D01*
X150241000Y-63614000D01*
X150241000Y-62804750D01*
X150495000Y-62804750D01*
X150495000Y-63614000D01*
X151329250Y-63614000D01*
X151488000Y-63455250D01*
X151491072Y-63281000D01*
X151478812Y-63156518D01*
X151442502Y-63036820D01*
X151383537Y-62926506D01*
X151304185Y-62829815D01*
X151207494Y-62750463D01*
X151097180Y-62691498D01*
X150977482Y-62655188D01*
X150853000Y-62642928D01*
X150653750Y-62646000D01*
X150495000Y-62804750D01*
X150241000Y-62804750D01*
X150082250Y-62646000D01*
X149883000Y-62642928D01*
X149758518Y-62655188D01*
X149638820Y-62691498D01*
X149528506Y-62750463D01*
X149431815Y-62829815D01*
X149352463Y-62926506D01*
X149293498Y-63036820D01*
X149257188Y-63156518D01*
X149244928Y-63281000D01*
X142548508Y-63281000D01*
X144159410Y-62475913D01*
X144300576Y-62419580D01*
X152023928Y-62419580D01*
X152027000Y-62833830D01*
X152185750Y-62992580D01*
X153035000Y-62992580D01*
X153035000Y-61943330D01*
X153289000Y-61943330D01*
X153289000Y-62992580D01*
X154138250Y-62992580D01*
X154297000Y-62833830D01*
X154300072Y-62419580D01*
X154287812Y-62295098D01*
X154251502Y-62175400D01*
X154192537Y-62065086D01*
X154113185Y-61968395D01*
X154016494Y-61889043D01*
X153906180Y-61830078D01*
X153786482Y-61793768D01*
X153662000Y-61781508D01*
X153447750Y-61784580D01*
X153289000Y-61943330D01*
X153035000Y-61943330D01*
X152876250Y-61784580D01*
X152662000Y-61781508D01*
X152537518Y-61793768D01*
X152417820Y-61830078D01*
X152307506Y-61889043D01*
X152210815Y-61968395D01*
X152131463Y-62065086D01*
X152072498Y-62175400D01*
X152036188Y-62295098D01*
X152023928Y-62419580D01*
X144300576Y-62419580D01*
X145870739Y-61792999D01*
X147633227Y-61255675D01*
X149434464Y-60867725D01*
X151261876Y-60631855D01*
X153102587Y-60549727D01*
X154943748Y-60621914D01*
G37*
X154943748Y-60621914D02*
X156772377Y-60847910D01*
X158575700Y-61226130D01*
X160341058Y-61753926D01*
X162056056Y-62427592D01*
X163708660Y-63242396D01*
X165287290Y-64192634D01*
X166780869Y-65271633D01*
X168178916Y-66471823D01*
X169471645Y-67784802D01*
X170649957Y-69201332D01*
X171705616Y-70711508D01*
X172638434Y-72317168D01*
X172680140Y-72396944D01*
X173466258Y-74079306D01*
X174103860Y-75808038D01*
X174594570Y-77584064D01*
X174934940Y-79394901D01*
X175123033Y-81232199D01*
X175140561Y-81815000D01*
X167611401Y-81815000D01*
X167467493Y-80374421D01*
X167461589Y-80336303D01*
X167455850Y-80298374D01*
X167455325Y-80295862D01*
X167148859Y-78842162D01*
X167138898Y-78805001D01*
X167129071Y-78767817D01*
X167128278Y-78765377D01*
X166806107Y-77779963D01*
X168220266Y-77779963D01*
X168220266Y-78320037D01*
X168325629Y-78849734D01*
X168532307Y-79348698D01*
X168832356Y-79797753D01*
X169214247Y-80179644D01*
X169663302Y-80479693D01*
X170162266Y-80686371D01*
X170691963Y-80791734D01*
X171232037Y-80791734D01*
X171761734Y-80686371D01*
X172260698Y-80479693D01*
X172709753Y-80179644D01*
X173091644Y-79797753D01*
X173391693Y-79348698D01*
X173598371Y-78849734D01*
X173703734Y-78320037D01*
X173703734Y-77779963D01*
X173598371Y-77250266D01*
X173391693Y-76751302D01*
X173091644Y-76302247D01*
X172709753Y-75920356D01*
X172260698Y-75620307D01*
X171761734Y-75413629D01*
X171232037Y-75308266D01*
X170691963Y-75308266D01*
X170162266Y-75413629D01*
X169663302Y-75620307D01*
X169214247Y-75920356D01*
X168832356Y-76302247D01*
X168532307Y-76751302D01*
X168325629Y-77250266D01*
X168220266Y-77779963D01*
X166806107Y-77779963D01*
X166666606Y-77353278D01*
X166652631Y-77317258D01*
X166638904Y-77281505D01*
X166637852Y-77279164D01*
X166026374Y-75925185D01*
X166016047Y-75905267D01*
X166006684Y-75884909D01*
X166005483Y-75882641D01*
X165871475Y-75630609D01*
X165859899Y-75611420D01*
X165849232Y-75591686D01*
X165847887Y-75589501D01*
X165802947Y-75516724D01*
X167516747Y-75516724D01*
X167642060Y-75733773D01*
X167714919Y-75835447D01*
X167806213Y-75920953D01*
X167912435Y-75987006D01*
X168029502Y-76031067D01*
X168152915Y-76051443D01*
X168277932Y-76047350D01*
X168399748Y-76018947D01*
X168513683Y-75967324D01*
X169726119Y-75267324D01*
X169827793Y-75194465D01*
X169913299Y-75103171D01*
X169979352Y-74996949D01*
X170023413Y-74879882D01*
X170043789Y-74756469D01*
X170039696Y-74631452D01*
X170011293Y-74509636D01*
X169959670Y-74395701D01*
X169791529Y-74104473D01*
X169832101Y-74095013D01*
X169946035Y-74043389D01*
X170303250Y-73833604D01*
X170361357Y-73616747D01*
X169936732Y-72881275D01*
X169919411Y-72891275D01*
X169840314Y-72754275D01*
X170156702Y-72754275D01*
X170581327Y-73489747D01*
X170798184Y-73547854D01*
X171158471Y-73343389D01*
X171260145Y-73270531D01*
X171345652Y-73179236D01*
X171411704Y-73073014D01*
X171455765Y-72955948D01*
X171476140Y-72832535D01*
X171472048Y-72707518D01*
X171443645Y-72585701D01*
X171392021Y-72471767D01*
X171282236Y-72287757D01*
X171065379Y-72229650D01*
X170156702Y-72754275D01*
X169840314Y-72754275D01*
X169792411Y-72671305D01*
X169809732Y-72661305D01*
X169385107Y-71925833D01*
X169168250Y-71867726D01*
X168807963Y-72072191D01*
X168706289Y-72145049D01*
X168677811Y-72175455D01*
X168509670Y-71884227D01*
X168448478Y-71798833D01*
X169605077Y-71798833D01*
X170029702Y-72534305D01*
X170938379Y-72009680D01*
X170996486Y-71792823D01*
X170892021Y-71605741D01*
X170819163Y-71504067D01*
X170727868Y-71418560D01*
X170621646Y-71352508D01*
X170504580Y-71308447D01*
X170381167Y-71288072D01*
X170256150Y-71292164D01*
X170134333Y-71320567D01*
X170020399Y-71372191D01*
X169663184Y-71581976D01*
X169605077Y-71798833D01*
X168448478Y-71798833D01*
X168436811Y-71782553D01*
X168345517Y-71697047D01*
X168239295Y-71630994D01*
X168122228Y-71586933D01*
X168117106Y-71586087D01*
X168173810Y-71374467D01*
X167756685Y-70651985D01*
X167739364Y-70661985D01*
X167660267Y-70524985D01*
X167976655Y-70524985D01*
X168393780Y-71247467D01*
X168610637Y-71305573D01*
X168763078Y-71221109D01*
X168864752Y-71148250D01*
X168950259Y-71056956D01*
X169016311Y-70950734D01*
X169060372Y-70833667D01*
X169080747Y-70710255D01*
X169076655Y-70585237D01*
X169048252Y-70463421D01*
X168996628Y-70349486D01*
X168894343Y-70178467D01*
X168677486Y-70120360D01*
X167976655Y-70524985D01*
X167660267Y-70524985D01*
X167612364Y-70442015D01*
X167629685Y-70432015D01*
X167212560Y-69709533D01*
X166995703Y-69651427D01*
X166843262Y-69735891D01*
X166741588Y-69808750D01*
X166656081Y-69900044D01*
X166613676Y-69968237D01*
X166533417Y-69970865D01*
X166449370Y-69990462D01*
X166041441Y-69582533D01*
X167432530Y-69582533D01*
X167849655Y-70305015D01*
X168550486Y-69900390D01*
X168608593Y-69683533D01*
X168511628Y-69509442D01*
X168438770Y-69407767D01*
X168347475Y-69322261D01*
X168241253Y-69256208D01*
X168124187Y-69212148D01*
X168000774Y-69191772D01*
X167875757Y-69195864D01*
X167753940Y-69224268D01*
X167640006Y-69275891D01*
X167490637Y-69365677D01*
X167432530Y-69582533D01*
X166041441Y-69582533D01*
X162919864Y-66460956D01*
X162892147Y-66427183D01*
X162757389Y-66316589D01*
X162603643Y-66234411D01*
X162436820Y-66183805D01*
X162306807Y-66171000D01*
X162306799Y-66171000D01*
X162263330Y-66166719D01*
X162219861Y-66171000D01*
X155720481Y-66171000D01*
X155853774Y-66081937D01*
X155997937Y-65937774D01*
X156111205Y-65768256D01*
X156189226Y-65579898D01*
X156229000Y-65379939D01*
X156229000Y-65176061D01*
X156189226Y-64976102D01*
X156111205Y-64787744D01*
X155997937Y-64618226D01*
X155853774Y-64474063D01*
X155684256Y-64360795D01*
X155495898Y-64282774D01*
X155295939Y-64243000D01*
X155122426Y-64243000D01*
X155063185Y-64170815D01*
X154966494Y-64091463D01*
X154856180Y-64032498D01*
X154736482Y-63996188D01*
X154612000Y-63983928D01*
X154275719Y-63983928D01*
X154287812Y-63944062D01*
X154300072Y-63819580D01*
X154297000Y-63405330D01*
X154138250Y-63246580D01*
X153289000Y-63246580D01*
X153289000Y-63266580D01*
X153035000Y-63266580D01*
X153035000Y-63246580D01*
X152185750Y-63246580D01*
X152027000Y-63405330D01*
X152023928Y-63819580D01*
X152036188Y-63944062D01*
X152048281Y-63983928D01*
X151712000Y-63983928D01*
X151587518Y-63996188D01*
X151487713Y-64026463D01*
X151329250Y-63868000D01*
X150495000Y-63868000D01*
X150495000Y-63888000D01*
X150241000Y-63888000D01*
X150241000Y-63868000D01*
X149406750Y-63868000D01*
X149248000Y-64026750D01*
X149244928Y-64201000D01*
X149257188Y-64325482D01*
X149281613Y-64406000D01*
X146123139Y-64406000D01*
X146079670Y-64401719D01*
X146036201Y-64406000D01*
X146036193Y-64406000D01*
X145906180Y-64418805D01*
X145739356Y-64469411D01*
X145585611Y-64551589D01*
X145484623Y-64634468D01*
X145484621Y-64634470D01*
X145450853Y-64662183D01*
X145423140Y-64695951D01*
X139874630Y-70244462D01*
X139790583Y-70224865D01*
X139710324Y-70222237D01*
X139667919Y-70154044D01*
X139582412Y-70062750D01*
X139480738Y-69989891D01*
X139328297Y-69905427D01*
X139111440Y-69963533D01*
X138694315Y-70686015D01*
X138711636Y-70696015D01*
X138584636Y-70915985D01*
X138567315Y-70905985D01*
X138166506Y-71600206D01*
X138084705Y-71630994D01*
X137978483Y-71697047D01*
X137887189Y-71782553D01*
X137814330Y-71884227D01*
X137646189Y-72175455D01*
X137617711Y-72145049D01*
X137516037Y-72072191D01*
X137155750Y-71867726D01*
X136938893Y-71925833D01*
X136514268Y-72661305D01*
X136531589Y-72671305D01*
X136404589Y-72891275D01*
X136387268Y-72881275D01*
X135962643Y-73616747D01*
X136020750Y-73833604D01*
X136377965Y-74043389D01*
X136491899Y-74095013D01*
X136532471Y-74104473D01*
X136364330Y-74395701D01*
X136312707Y-74509636D01*
X136284304Y-74631452D01*
X136280211Y-74756469D01*
X136300587Y-74879882D01*
X136344648Y-74996949D01*
X136410701Y-75103171D01*
X136496207Y-75194465D01*
X136597881Y-75267324D01*
X137810317Y-75967324D01*
X137924252Y-76018947D01*
X138046068Y-76047350D01*
X138171085Y-76051443D01*
X138294498Y-76031067D01*
X138411565Y-75987006D01*
X138517787Y-75920953D01*
X138609081Y-75835447D01*
X138681940Y-75733773D01*
X138807253Y-75516724D01*
X140533284Y-75516724D01*
X140334216Y-75854611D01*
X140321818Y-75878524D01*
X140308578Y-75902018D01*
X140307446Y-75904321D01*
X140032732Y-76465024D01*
X140022201Y-76489830D01*
X140010809Y-76514259D01*
X140009857Y-76516642D01*
X139460541Y-77897011D01*
X139448259Y-77933506D01*
X139435874Y-77969884D01*
X139435184Y-77972355D01*
X139038162Y-79403976D01*
X139029920Y-79441462D01*
X139021510Y-79479085D01*
X139021091Y-79481617D01*
X138781003Y-80947742D01*
X138776853Y-80985940D01*
X138772560Y-81024211D01*
X138772419Y-81026754D01*
X138772417Y-81026773D01*
X138772417Y-81026791D01*
X138729729Y-81815000D01*
X131192451Y-81815000D01*
X131238803Y-80709059D01*
X131469737Y-78881027D01*
X131703776Y-77779963D01*
X132620266Y-77779963D01*
X132620266Y-78320037D01*
X132725629Y-78849734D01*
X132932307Y-79348698D01*
X133232356Y-79797753D01*
X133614247Y-80179644D01*
X134063302Y-80479693D01*
X134562266Y-80686371D01*
X135091963Y-80791734D01*
X135632037Y-80791734D01*
X136161734Y-80686371D01*
X136660698Y-80479693D01*
X137109753Y-80179644D01*
X137491644Y-79797753D01*
X137791693Y-79348698D01*
X137998371Y-78849734D01*
X138103734Y-78320037D01*
X138103734Y-77779963D01*
X137998371Y-77250266D01*
X137791693Y-76751302D01*
X137491644Y-76302247D01*
X137109753Y-75920356D01*
X136660698Y-75620307D01*
X136161734Y-75413629D01*
X135632037Y-75308266D01*
X135091963Y-75308266D01*
X134562266Y-75413629D01*
X134063302Y-75620307D01*
X133614247Y-75920356D01*
X133232356Y-76302247D01*
X132932307Y-76751302D01*
X132725629Y-77250266D01*
X132620266Y-77779963D01*
X131703776Y-77779963D01*
X131852828Y-77078731D01*
X132385386Y-75314815D01*
X133065278Y-73597604D01*
X133433853Y-72832535D01*
X134847860Y-72832535D01*
X134868235Y-72955948D01*
X134912296Y-73073014D01*
X134978348Y-73179236D01*
X135063855Y-73270531D01*
X135165529Y-73343389D01*
X135525816Y-73547854D01*
X135742673Y-73489747D01*
X136167298Y-72754275D01*
X135258621Y-72229650D01*
X135041764Y-72287757D01*
X134931979Y-72471767D01*
X134880355Y-72585701D01*
X134851952Y-72707518D01*
X134847860Y-72832535D01*
X133433853Y-72832535D01*
X133635586Y-72413790D01*
X133991869Y-71792823D01*
X135327514Y-71792823D01*
X135385621Y-72009680D01*
X136294298Y-72534305D01*
X136718923Y-71798833D01*
X136660816Y-71581976D01*
X136303601Y-71372191D01*
X136189667Y-71320567D01*
X136067850Y-71292164D01*
X135942833Y-71288072D01*
X135819420Y-71308447D01*
X135702354Y-71352508D01*
X135596132Y-71418560D01*
X135504837Y-71504067D01*
X135431979Y-71605741D01*
X135327514Y-71792823D01*
X133991869Y-71792823D01*
X134467265Y-70964255D01*
X137243253Y-70964255D01*
X137263628Y-71087667D01*
X137307689Y-71204734D01*
X137373741Y-71310956D01*
X137459248Y-71402250D01*
X137560922Y-71475109D01*
X137713363Y-71559573D01*
X137930220Y-71501467D01*
X138347345Y-70778985D01*
X137646514Y-70374360D01*
X137429657Y-70432467D01*
X137327372Y-70603486D01*
X137275748Y-70717421D01*
X137247345Y-70839237D01*
X137243253Y-70964255D01*
X134467265Y-70964255D01*
X134554729Y-70811814D01*
X135158874Y-69937533D01*
X137715407Y-69937533D01*
X137773514Y-70154390D01*
X138474345Y-70559015D01*
X138891470Y-69836533D01*
X138833363Y-69619677D01*
X138683994Y-69529891D01*
X138570060Y-69478268D01*
X138448243Y-69449864D01*
X138323226Y-69445772D01*
X138199813Y-69466148D01*
X138082747Y-69510208D01*
X137976525Y-69576261D01*
X137885230Y-69661767D01*
X137812372Y-69763442D01*
X137715407Y-69937533D01*
X135158874Y-69937533D01*
X135602206Y-69295973D01*
X136772861Y-67873090D01*
X138058476Y-66553152D01*
X139450022Y-65345430D01*
X140937759Y-64258376D01*
X142511242Y-63299625D01*
X142548508Y-63281000D01*
X149244928Y-63281000D01*
X149248000Y-63455250D01*
X149406750Y-63614000D01*
X150241000Y-63614000D01*
X150241000Y-62804750D01*
X150495000Y-62804750D01*
X150495000Y-63614000D01*
X151329250Y-63614000D01*
X151488000Y-63455250D01*
X151491072Y-63281000D01*
X151478812Y-63156518D01*
X151442502Y-63036820D01*
X151383537Y-62926506D01*
X151304185Y-62829815D01*
X151207494Y-62750463D01*
X151097180Y-62691498D01*
X150977482Y-62655188D01*
X150853000Y-62642928D01*
X150653750Y-62646000D01*
X150495000Y-62804750D01*
X150241000Y-62804750D01*
X150082250Y-62646000D01*
X149883000Y-62642928D01*
X149758518Y-62655188D01*
X149638820Y-62691498D01*
X149528506Y-62750463D01*
X149431815Y-62829815D01*
X149352463Y-62926506D01*
X149293498Y-63036820D01*
X149257188Y-63156518D01*
X149244928Y-63281000D01*
X142548508Y-63281000D01*
X144159410Y-62475913D01*
X144300576Y-62419580D01*
X152023928Y-62419580D01*
X152027000Y-62833830D01*
X152185750Y-62992580D01*
X153035000Y-62992580D01*
X153035000Y-61943330D01*
X153289000Y-61943330D01*
X153289000Y-62992580D01*
X154138250Y-62992580D01*
X154297000Y-62833830D01*
X154300072Y-62419580D01*
X154287812Y-62295098D01*
X154251502Y-62175400D01*
X154192537Y-62065086D01*
X154113185Y-61968395D01*
X154016494Y-61889043D01*
X153906180Y-61830078D01*
X153786482Y-61793768D01*
X153662000Y-61781508D01*
X153447750Y-61784580D01*
X153289000Y-61943330D01*
X153035000Y-61943330D01*
X152876250Y-61784580D01*
X152662000Y-61781508D01*
X152537518Y-61793768D01*
X152417820Y-61830078D01*
X152307506Y-61889043D01*
X152210815Y-61968395D01*
X152131463Y-62065086D01*
X152072498Y-62175400D01*
X152036188Y-62295098D01*
X152023928Y-62419580D01*
X144300576Y-62419580D01*
X145870739Y-61792999D01*
X147633227Y-61255675D01*
X149434464Y-60867725D01*
X151261876Y-60631855D01*
X153102587Y-60549727D01*
X154943748Y-60621914D01*
G36*
X149431815Y-66202185D02*
G01*
X149528506Y-66281537D01*
X149638820Y-66340502D01*
X149758518Y-66376812D01*
X149883000Y-66389072D01*
X150853000Y-66389072D01*
X150977482Y-66376812D01*
X151097180Y-66340502D01*
X151147770Y-66313460D01*
X151181463Y-66376494D01*
X151260815Y-66473185D01*
X151357506Y-66552537D01*
X151375137Y-66561961D01*
X151390412Y-66612313D01*
X151472590Y-66766059D01*
X151555468Y-66867046D01*
X151555471Y-66867049D01*
X151583184Y-66900817D01*
X151616951Y-66928529D01*
X152339470Y-67651049D01*
X152367183Y-67684817D01*
X152400951Y-67712530D01*
X152400953Y-67712532D01*
X152472452Y-67771210D01*
X152501941Y-67795411D01*
X152655687Y-67877589D01*
X152822510Y-67928195D01*
X152952523Y-67941000D01*
X152952533Y-67941000D01*
X152995999Y-67945281D01*
X153039465Y-67941000D01*
X161896752Y-67941000D01*
X164970086Y-71014335D01*
X164346957Y-71637465D01*
X164290102Y-71648774D01*
X164101744Y-71726795D01*
X163932226Y-71840063D01*
X163788063Y-71984226D01*
X163674795Y-72153744D01*
X163596774Y-72342102D01*
X163562056Y-72516641D01*
X163023491Y-71960794D01*
X162995195Y-71934587D01*
X162967138Y-71908419D01*
X162965167Y-71906777D01*
X161822184Y-70957696D01*
X161791310Y-70934763D01*
X161760503Y-70911712D01*
X161758375Y-70910299D01*
X161758367Y-70910293D01*
X161758358Y-70910288D01*
X160519567Y-70090206D01*
X160486322Y-70070697D01*
X160453283Y-70051154D01*
X160451011Y-70049976D01*
X160451004Y-70049972D01*
X160450997Y-70049969D01*
X159130884Y-69368471D01*
X159095925Y-69352757D01*
X159060769Y-69336805D01*
X159058376Y-69335878D01*
X157672374Y-68800935D01*
X157635905Y-68789082D01*
X157599250Y-68777027D01*
X157596772Y-68776363D01*
X156161102Y-68394236D01*
X156123489Y-68386375D01*
X156085823Y-68378365D01*
X156083288Y-68377973D01*
X154614748Y-68153132D01*
X154576508Y-68149379D01*
X154538195Y-68145484D01*
X154535632Y-68145368D01*
X153051398Y-68080444D01*
X153012893Y-68080844D01*
X152974467Y-68081109D01*
X152971907Y-68081270D01*
X152971905Y-68081270D01*
X151489342Y-68177022D01*
X151451065Y-68181583D01*
X151412934Y-68185991D01*
X151410405Y-68186428D01*
X149946853Y-68441736D01*
X149909399Y-68450380D01*
X149871860Y-68458905D01*
X149869393Y-68459613D01*
X148441975Y-68871490D01*
X148405619Y-68884147D01*
X148369274Y-68896658D01*
X148366899Y-68897627D01*
X146992313Y-69461255D01*
X146957565Y-69477751D01*
X146922756Y-69494127D01*
X146920506Y-69495344D01*
X146920498Y-69495348D01*
X146920490Y-69495353D01*
X145614823Y-70204134D01*
X145582077Y-70224276D01*
X145549223Y-70244326D01*
X145547111Y-70245783D01*
X144325621Y-71091436D01*
X144295110Y-71115099D01*
X144264746Y-71138478D01*
X144262813Y-71140147D01*
X144262803Y-71140155D01*
X144262794Y-71140163D01*
X143139788Y-72112780D01*
X143112092Y-72139522D01*
X143084348Y-72166122D01*
X143082598Y-72167999D01*
X142109000Y-73215545D01*
X142109000Y-73195469D01*
X142113281Y-73152000D01*
X142109000Y-73108531D01*
X142109000Y-73108523D01*
X142096195Y-72978510D01*
X142045589Y-72811687D01*
X141963411Y-72657941D01*
X141852817Y-72523183D01*
X141819045Y-72495467D01*
X141686693Y-72363115D01*
X141678196Y-72276841D01*
X141627590Y-72110018D01*
X141545412Y-71956272D01*
X141509418Y-71912413D01*
X141462533Y-71855284D01*
X141462531Y-71855282D01*
X141434818Y-71821514D01*
X141401051Y-71793802D01*
X141114748Y-71507500D01*
X146446249Y-66176000D01*
X149410326Y-66176000D01*
X149431815Y-66202185D01*
G37*
X149431815Y-66202185D02*
X149528506Y-66281537D01*
X149638820Y-66340502D01*
X149758518Y-66376812D01*
X149883000Y-66389072D01*
X150853000Y-66389072D01*
X150977482Y-66376812D01*
X151097180Y-66340502D01*
X151147770Y-66313460D01*
X151181463Y-66376494D01*
X151260815Y-66473185D01*
X151357506Y-66552537D01*
X151375137Y-66561961D01*
X151390412Y-66612313D01*
X151472590Y-66766059D01*
X151555468Y-66867046D01*
X151555471Y-66867049D01*
X151583184Y-66900817D01*
X151616951Y-66928529D01*
X152339470Y-67651049D01*
X152367183Y-67684817D01*
X152400951Y-67712530D01*
X152400953Y-67712532D01*
X152472452Y-67771210D01*
X152501941Y-67795411D01*
X152655687Y-67877589D01*
X152822510Y-67928195D01*
X152952523Y-67941000D01*
X152952533Y-67941000D01*
X152995999Y-67945281D01*
X153039465Y-67941000D01*
X161896752Y-67941000D01*
X164970086Y-71014335D01*
X164346957Y-71637465D01*
X164290102Y-71648774D01*
X164101744Y-71726795D01*
X163932226Y-71840063D01*
X163788063Y-71984226D01*
X163674795Y-72153744D01*
X163596774Y-72342102D01*
X163562056Y-72516641D01*
X163023491Y-71960794D01*
X162995195Y-71934587D01*
X162967138Y-71908419D01*
X162965167Y-71906777D01*
X161822184Y-70957696D01*
X161791310Y-70934763D01*
X161760503Y-70911712D01*
X161758375Y-70910299D01*
X161758367Y-70910293D01*
X161758358Y-70910288D01*
X160519567Y-70090206D01*
X160486322Y-70070697D01*
X160453283Y-70051154D01*
X160451011Y-70049976D01*
X160451004Y-70049972D01*
X160450997Y-70049969D01*
X159130884Y-69368471D01*
X159095925Y-69352757D01*
X159060769Y-69336805D01*
X159058376Y-69335878D01*
X157672374Y-68800935D01*
X157635905Y-68789082D01*
X157599250Y-68777027D01*
X157596772Y-68776363D01*
X156161102Y-68394236D01*
X156123489Y-68386375D01*
X156085823Y-68378365D01*
X156083288Y-68377973D01*
X154614748Y-68153132D01*
X154576508Y-68149379D01*
X154538195Y-68145484D01*
X154535632Y-68145368D01*
X153051398Y-68080444D01*
X153012893Y-68080844D01*
X152974467Y-68081109D01*
X152971907Y-68081270D01*
X152971905Y-68081270D01*
X151489342Y-68177022D01*
X151451065Y-68181583D01*
X151412934Y-68185991D01*
X151410405Y-68186428D01*
X149946853Y-68441736D01*
X149909399Y-68450380D01*
X149871860Y-68458905D01*
X149869393Y-68459613D01*
X148441975Y-68871490D01*
X148405619Y-68884147D01*
X148369274Y-68896658D01*
X148366899Y-68897627D01*
X146992313Y-69461255D01*
X146957565Y-69477751D01*
X146922756Y-69494127D01*
X146920506Y-69495344D01*
X146920498Y-69495348D01*
X146920490Y-69495353D01*
X145614823Y-70204134D01*
X145582077Y-70224276D01*
X145549223Y-70244326D01*
X145547111Y-70245783D01*
X144325621Y-71091436D01*
X144295110Y-71115099D01*
X144264746Y-71138478D01*
X144262813Y-71140147D01*
X144262803Y-71140155D01*
X144262794Y-71140163D01*
X143139788Y-72112780D01*
X143112092Y-72139522D01*
X143084348Y-72166122D01*
X143082598Y-72167999D01*
X142109000Y-73215545D01*
X142109000Y-73195469D01*
X142113281Y-73152000D01*
X142109000Y-73108531D01*
X142109000Y-73108523D01*
X142096195Y-72978510D01*
X142045589Y-72811687D01*
X141963411Y-72657941D01*
X141852817Y-72523183D01*
X141819045Y-72495467D01*
X141686693Y-72363115D01*
X141678196Y-72276841D01*
X141627590Y-72110018D01*
X141545412Y-71956272D01*
X141509418Y-71912413D01*
X141462533Y-71855284D01*
X141462531Y-71855282D01*
X141434818Y-71821514D01*
X141401051Y-71793802D01*
X141114748Y-71507500D01*
X146446249Y-66176000D01*
X149410326Y-66176000D01*
X149431815Y-66202185D01*
M02*
