G04 #@! TF.GenerationSoftware,KiCad,Pcbnew,5.1.5*
G04 #@! TF.CreationDate,2020-06-30T15:32:26-05:00*
G04 #@! TF.ProjectId,Encoder,456e636f-6465-4722-9e6b-696361645f70,rev?*
G04 #@! TF.SameCoordinates,Original*
G04 #@! TF.FileFunction,Paste,Top*
G04 #@! TF.FilePolarity,Positive*
%FSLAX46Y46*%
G04 Gerber Fmt 4.6, Leading zero omitted, Abs format (unit mm)*
G04 Created by KiCad (PCBNEW 5.1.5) date 2020-06-30 15:32:26*
%MOMM*%
%LPD*%
G04 APERTURE LIST*
%ADD10C,0.100000*%
%ADD11R,0.970000X0.920000*%
%ADD12R,1.000000X1.400000*%
G04 APERTURE END LIST*
D10*
G36*
X139161702Y-70542478D02*
G01*
X138676702Y-71382522D01*
X137879958Y-70922522D01*
X138364958Y-70082478D01*
X139161702Y-70542478D01*
G37*
G36*
X140504042Y-71317478D02*
G01*
X140019042Y-72157522D01*
X139222298Y-71697522D01*
X139707298Y-70857478D01*
X140504042Y-71317478D01*
G37*
D11*
X150368000Y-65291000D03*
X150368000Y-63741000D03*
D10*
G36*
X167647298Y-71128522D02*
G01*
X167162298Y-70288478D01*
X167959042Y-69828478D01*
X168444042Y-70668522D01*
X167647298Y-71128522D01*
G37*
G36*
X166304958Y-71903522D02*
G01*
X165819958Y-71063478D01*
X166616702Y-70603478D01*
X167101702Y-71443522D01*
X166304958Y-71903522D01*
G37*
G36*
X138129353Y-75414737D02*
G01*
X136916917Y-74714737D01*
X137416917Y-73848711D01*
X138629353Y-74548711D01*
X138129353Y-75414737D01*
G37*
G36*
X139079353Y-73769289D02*
G01*
X137866917Y-73069289D01*
X138366917Y-72203263D01*
X139579353Y-72903263D01*
X139079353Y-73769289D01*
G37*
G36*
X136697001Y-73490803D02*
G01*
X135484565Y-72790803D01*
X135984565Y-71924777D01*
X137197001Y-72624777D01*
X136697001Y-73490803D01*
G37*
D12*
X153162000Y-63119580D03*
X154112000Y-65322000D03*
X152212000Y-65322000D03*
D10*
G36*
X166744647Y-72903263D02*
G01*
X167957083Y-72203263D01*
X168457083Y-73069289D01*
X167244647Y-73769289D01*
X166744647Y-72903263D01*
G37*
G36*
X167694647Y-74548711D02*
G01*
X168907083Y-73848711D01*
X169407083Y-74714737D01*
X168194647Y-75414737D01*
X167694647Y-74548711D01*
G37*
G36*
X169126999Y-72624777D02*
G01*
X170339435Y-71924777D01*
X170839435Y-72790803D01*
X169626999Y-73490803D01*
X169126999Y-72624777D01*
G37*
M02*
