G04 #@! TF.GenerationSoftware,KiCad,Pcbnew,5.1.5*
G04 #@! TF.CreationDate,2020-06-30T15:32:26-05:00*
G04 #@! TF.ProjectId,Encoder,456e636f-6465-4722-9e6b-696361645f70,rev?*
G04 #@! TF.SameCoordinates,Original*
G04 #@! TF.FileFunction,Legend,Bot*
G04 #@! TF.FilePolarity,Positive*
%FSLAX46Y46*%
G04 Gerber Fmt 4.6, Leading zero omitted, Abs format (unit mm)*
G04 Created by KiCad (PCBNEW 5.1.5) date 2020-06-30 15:32:26*
%MOMM*%
%LPD*%
G04 APERTURE LIST*
%ADD10C,0.175000*%
%ADD11C,0.127000*%
%ADD12C,0.200000*%
G04 APERTURE END LIST*
D10*
X138435904Y-81895904D02*
X138435904Y-81095904D01*
X138435904Y-81476857D02*
X137978761Y-81476857D01*
X137978761Y-81895904D02*
X137978761Y-81095904D01*
X137331142Y-81476857D02*
X137216857Y-81514952D01*
X137178761Y-81553047D01*
X137140666Y-81629238D01*
X137140666Y-81743523D01*
X137178761Y-81819714D01*
X137216857Y-81857809D01*
X137293047Y-81895904D01*
X137597809Y-81895904D01*
X137597809Y-81095904D01*
X137331142Y-81095904D01*
X137254952Y-81134000D01*
X137216857Y-81172095D01*
X137178761Y-81248285D01*
X137178761Y-81324476D01*
X137216857Y-81400666D01*
X137254952Y-81438761D01*
X137331142Y-81476857D01*
X137597809Y-81476857D01*
X136874000Y-81362571D02*
X136683523Y-81895904D01*
X136493047Y-81362571D01*
X136264476Y-81095904D02*
X135769238Y-81095904D01*
X136035904Y-81400666D01*
X135921619Y-81400666D01*
X135845428Y-81438761D01*
X135807333Y-81476857D01*
X135769238Y-81553047D01*
X135769238Y-81743523D01*
X135807333Y-81819714D01*
X135845428Y-81857809D01*
X135921619Y-81895904D01*
X136150190Y-81895904D01*
X136226380Y-81857809D01*
X136264476Y-81819714D01*
X134664476Y-81095904D02*
X134588285Y-81095904D01*
X134512095Y-81134000D01*
X134474000Y-81172095D01*
X134435904Y-81248285D01*
X134397809Y-81400666D01*
X134397809Y-81591142D01*
X134435904Y-81743523D01*
X134474000Y-81819714D01*
X134512095Y-81857809D01*
X134588285Y-81895904D01*
X134664476Y-81895904D01*
X134740666Y-81857809D01*
X134778761Y-81819714D01*
X134816857Y-81743523D01*
X134854952Y-81591142D01*
X134854952Y-81400666D01*
X134816857Y-81248285D01*
X134778761Y-81172095D01*
X134740666Y-81134000D01*
X134664476Y-81095904D01*
X133712095Y-81095904D02*
X133864476Y-81095904D01*
X133940666Y-81134000D01*
X133978761Y-81172095D01*
X134054952Y-81286380D01*
X134093047Y-81438761D01*
X134093047Y-81743523D01*
X134054952Y-81819714D01*
X134016857Y-81857809D01*
X133940666Y-81895904D01*
X133788285Y-81895904D01*
X133712095Y-81857809D01*
X133674000Y-81819714D01*
X133635904Y-81743523D01*
X133635904Y-81553047D01*
X133674000Y-81476857D01*
X133712095Y-81438761D01*
X133788285Y-81400666D01*
X133940666Y-81400666D01*
X134016857Y-81438761D01*
X134054952Y-81476857D01*
X134093047Y-81553047D01*
X132721619Y-81057809D02*
X133407333Y-82086380D01*
X132531142Y-81095904D02*
X132035904Y-81095904D01*
X132302571Y-81400666D01*
X132188285Y-81400666D01*
X132112095Y-81438761D01*
X132074000Y-81476857D01*
X132035904Y-81553047D01*
X132035904Y-81743523D01*
X132074000Y-81819714D01*
X132112095Y-81857809D01*
X132188285Y-81895904D01*
X132416857Y-81895904D01*
X132493047Y-81857809D01*
X132531142Y-81819714D01*
X131540666Y-81095904D02*
X131464476Y-81095904D01*
X131388285Y-81134000D01*
X131350190Y-81172095D01*
X131312095Y-81248285D01*
X131274000Y-81400666D01*
X131274000Y-81591142D01*
X131312095Y-81743523D01*
X131350190Y-81819714D01*
X131388285Y-81857809D01*
X131464476Y-81895904D01*
X131540666Y-81895904D01*
X131616857Y-81857809D01*
X131654952Y-81819714D01*
X131693047Y-81743523D01*
X131731142Y-81591142D01*
X131731142Y-81400666D01*
X131693047Y-81248285D01*
X131654952Y-81172095D01*
X131616857Y-81134000D01*
X131540666Y-81095904D01*
D11*
X145796000Y-69794000D02*
X145796000Y-62794000D01*
D12*
X144396000Y-62194000D02*
G75*
G03X144396000Y-62194000I-100000J0D01*
G01*
D11*
X142796000Y-69794000D02*
X142796000Y-62794000D01*
X153924000Y-67508000D02*
X153924000Y-60508000D01*
D12*
X152524000Y-59908000D02*
G75*
G03X152524000Y-59908000I-100000J0D01*
G01*
D11*
X150924000Y-67508000D02*
X150924000Y-60508000D01*
X159004000Y-68270000D02*
X159004000Y-61270000D01*
D12*
X157604000Y-60670000D02*
G75*
G03X157604000Y-60670000I-100000J0D01*
G01*
D11*
X156004000Y-68270000D02*
X156004000Y-61270000D01*
D12*
X164125000Y-72473954D02*
G75*
G03X164125000Y-72473954I-100000J0D01*
G01*
D11*
X169124038Y-66642161D02*
X163927886Y-63642161D01*
X165624038Y-72704339D02*
X160427886Y-69704339D01*
X169124038Y-66642161D02*
X165624038Y-72704339D01*
X163927886Y-63642161D02*
X160427886Y-69704339D01*
M02*
