G04 #@! TF.GenerationSoftware,KiCad,Pcbnew,5.1.5*
G04 #@! TF.CreationDate,2020-06-30T15:32:26-05:00*
G04 #@! TF.ProjectId,Encoder,456e636f-6465-4722-9e6b-696361645f70,rev?*
G04 #@! TF.SameCoordinates,Original*
G04 #@! TF.FileFunction,Soldermask,Top*
G04 #@! TF.FilePolarity,Negative*
%FSLAX46Y46*%
G04 Gerber Fmt 4.6, Leading zero omitted, Abs format (unit mm)*
G04 Created by KiCad (PCBNEW 5.1.5) date 2020-06-30 15:32:26*
%MOMM*%
%LPD*%
G04 APERTURE LIST*
%ADD10C,0.100000*%
G04 APERTURE END LIST*
D10*
G36*
X169476751Y-74733404D02*
G01*
X168175980Y-75484405D01*
X167624979Y-74530044D01*
X168925750Y-73779043D01*
X169476751Y-74733404D01*
G37*
G36*
X138699021Y-74530044D02*
G01*
X138148020Y-75484405D01*
X136847249Y-74733404D01*
X137398250Y-73779043D01*
X138699021Y-74530044D01*
G37*
G36*
X139649021Y-72884596D02*
G01*
X139098020Y-73838957D01*
X137797249Y-73087956D01*
X138348250Y-72133595D01*
X139649021Y-72884596D01*
G37*
G36*
X168526751Y-73087956D02*
G01*
X167225980Y-73838957D01*
X166674979Y-72884596D01*
X167975750Y-72133595D01*
X168526751Y-73087956D01*
G37*
G36*
X137266669Y-72606110D02*
G01*
X136715668Y-73560471D01*
X135414897Y-72809470D01*
X135965898Y-71855109D01*
X137266669Y-72606110D01*
G37*
G36*
X170909103Y-72809470D02*
G01*
X169608332Y-73560471D01*
X169057331Y-72606110D01*
X170358102Y-71855109D01*
X170909103Y-72809470D01*
G37*
G36*
X140573709Y-71298810D02*
G01*
X140037709Y-72227190D01*
X139152631Y-71716190D01*
X139688631Y-70787810D01*
X140573709Y-71298810D01*
G37*
G36*
X167171369Y-71462190D02*
G01*
X166286291Y-71973190D01*
X165750291Y-71044810D01*
X166635369Y-70533810D01*
X167171369Y-71462190D01*
G37*
G36*
X139231369Y-70523810D02*
G01*
X138695369Y-71452190D01*
X137810291Y-70941190D01*
X138346291Y-70012810D01*
X139231369Y-70523810D01*
G37*
G36*
X168513709Y-70687190D02*
G01*
X167628631Y-71198190D01*
X167092631Y-70269810D01*
X167977709Y-69758810D01*
X168513709Y-70687190D01*
G37*
G36*
X152763000Y-66073000D02*
G01*
X151661000Y-66073000D01*
X151661000Y-64571000D01*
X152763000Y-64571000D01*
X152763000Y-66073000D01*
G37*
G36*
X154663000Y-66073000D02*
G01*
X153561000Y-66073000D01*
X153561000Y-64571000D01*
X154663000Y-64571000D01*
X154663000Y-66073000D01*
G37*
G36*
X150904000Y-65802000D02*
G01*
X149832000Y-65802000D01*
X149832000Y-64780000D01*
X150904000Y-64780000D01*
X150904000Y-65802000D01*
G37*
G36*
X150904000Y-64252000D02*
G01*
X149832000Y-64252000D01*
X149832000Y-63230000D01*
X150904000Y-63230000D01*
X150904000Y-64252000D01*
G37*
G36*
X153713000Y-63870580D02*
G01*
X152611000Y-63870580D01*
X152611000Y-62368580D01*
X153713000Y-62368580D01*
X153713000Y-63870580D01*
G37*
M02*
