G04 #@! TF.GenerationSoftware,KiCad,Pcbnew,5.1.5*
G04 #@! TF.CreationDate,2020-06-30T15:32:26-05:00*
G04 #@! TF.ProjectId,Encoder,456e636f-6465-4722-9e6b-696361645f70,rev?*
G04 #@! TF.SameCoordinates,Original*
G04 #@! TF.FileFunction,Legend,Top*
G04 #@! TF.FilePolarity,Positive*
%FSLAX46Y46*%
G04 Gerber Fmt 4.6, Leading zero omitted, Abs format (unit mm)*
G04 Created by KiCad (PCBNEW 5.1.5) date 2020-06-30 15:32:26*
%MOMM*%
%LPD*%
G04 APERTURE LIST*
%ADD10C,0.152400*%
%ADD11C,0.100000*%
%ADD12C,0.150000*%
G04 APERTURE END LIST*
D10*
X137151636Y-72182551D02*
X137431038Y-71698613D01*
X137431038Y-71698613D02*
X138134943Y-72105013D01*
X136008638Y-74162282D02*
X136288036Y-73678350D01*
X136712543Y-74568682D02*
X136008638Y-74162282D01*
X151736300Y-64371980D02*
X151736300Y-63559180D01*
X151736300Y-63559180D02*
X152295097Y-63559180D01*
X154581100Y-63559180D02*
X154581100Y-64371980D01*
X154022297Y-63559180D02*
X154581100Y-63559180D01*
X170032661Y-73672629D02*
X170312062Y-74156567D01*
X170312062Y-74156567D02*
X169608157Y-74562967D01*
X168889662Y-71692898D02*
X169169061Y-72176830D01*
X168185757Y-72099298D02*
X168889662Y-71692898D01*
D11*
X139538545Y-70216980D02*
X139506021Y-70225695D01*
X139432257Y-70210600D01*
X139391018Y-70186791D01*
X139341063Y-70130457D01*
X139323634Y-70065408D01*
X139326823Y-70012264D01*
X139353823Y-69917881D01*
X139389537Y-69856022D01*
X139457776Y-69785448D01*
X139502205Y-69756113D01*
X139567254Y-69738684D01*
X139641018Y-69753778D01*
X139682257Y-69777588D01*
X139732211Y-69833922D01*
X139740926Y-69866446D01*
X139927129Y-70496315D02*
X139679693Y-70353458D01*
X139803411Y-70424886D02*
X140053411Y-69991873D01*
X139976457Y-70029923D01*
X139911408Y-70047353D01*
X139858264Y-70044163D01*
X149476571Y-64839333D02*
X149500380Y-64863142D01*
X149524190Y-64934571D01*
X149524190Y-64982190D01*
X149500380Y-65053619D01*
X149452761Y-65101238D01*
X149405142Y-65125047D01*
X149309904Y-65148857D01*
X149238476Y-65148857D01*
X149143238Y-65125047D01*
X149095619Y-65101238D01*
X149048000Y-65053619D01*
X149024190Y-64982190D01*
X149024190Y-64934571D01*
X149048000Y-64863142D01*
X149071809Y-64839333D01*
X149071809Y-64648857D02*
X149048000Y-64625047D01*
X149024190Y-64577428D01*
X149024190Y-64458380D01*
X149048000Y-64410761D01*
X149071809Y-64386952D01*
X149119428Y-64363142D01*
X149167047Y-64363142D01*
X149238476Y-64386952D01*
X149524190Y-64672666D01*
X149524190Y-64363142D01*
X166406270Y-70255667D02*
X166397556Y-70288191D01*
X166347601Y-70344525D01*
X166306362Y-70368334D01*
X166232598Y-70383429D01*
X166167549Y-70365999D01*
X166123120Y-70336665D01*
X166054882Y-70266091D01*
X166019167Y-70204232D01*
X165992168Y-70109849D01*
X165988978Y-70056705D01*
X166006408Y-69991656D01*
X166056362Y-69935322D01*
X166097601Y-69911512D01*
X166171365Y-69896418D01*
X166203889Y-69905132D01*
X166324418Y-69780560D02*
X166592473Y-69625798D01*
X166543374Y-69874088D01*
X166605232Y-69838374D01*
X166658377Y-69835184D01*
X166690901Y-69843899D01*
X166735330Y-69873234D01*
X166794854Y-69976332D01*
X166798044Y-70029476D01*
X166789329Y-70062000D01*
X166759994Y-70106430D01*
X166636276Y-70177858D01*
X166583132Y-70181048D01*
X166550608Y-70172333D01*
D12*
X135162685Y-72728110D02*
X134295295Y-72227323D01*
X134708338Y-72465793D02*
X134994502Y-71970142D01*
X135448849Y-72232459D02*
X134581459Y-71731671D01*
X135415647Y-71717639D02*
X135654117Y-71304596D01*
X135615778Y-71943329D02*
X134915318Y-71153412D01*
X135949636Y-71365070D01*
X152375048Y-61667093D02*
X152375048Y-60665518D01*
X152375048Y-61142458D02*
X152947376Y-61142458D01*
X152947376Y-61667093D02*
X152947376Y-60665518D01*
X153758175Y-61142458D02*
X153901257Y-61190152D01*
X153948951Y-61237847D01*
X153996645Y-61333235D01*
X153996645Y-61476317D01*
X153948951Y-61571705D01*
X153901257Y-61619399D01*
X153805869Y-61667093D01*
X153424317Y-61667093D01*
X153424317Y-60665518D01*
X153758175Y-60665518D01*
X153853563Y-60713212D01*
X153901257Y-60760906D01*
X153948951Y-60856294D01*
X153948951Y-60951682D01*
X153901257Y-61047070D01*
X153853563Y-61094764D01*
X153758175Y-61142458D01*
X153424317Y-61142458D01*
X170410133Y-71427026D02*
X171277523Y-70926238D01*
X170864480Y-71164709D02*
X171150644Y-71660360D01*
X170696297Y-71922677D02*
X171563687Y-71421890D01*
X171303540Y-72783677D02*
X171238389Y-72766219D01*
X171125544Y-72666154D01*
X171077850Y-72583545D01*
X171047613Y-72435785D01*
X171082527Y-72305483D01*
X171141289Y-72216485D01*
X171282659Y-72079792D01*
X171406572Y-72008251D01*
X171595636Y-71954167D01*
X171702091Y-71947777D01*
X171832394Y-71982692D01*
X171945239Y-72082758D01*
X171992933Y-72165366D01*
X172023170Y-72313126D01*
X172005713Y-72378277D01*
M02*
